<svg xmlns="http://www.w3.org/2000/svg" viewBox="0 0 648.95 219.6"><defs><style>.cls-1{fill:#f40000;}</style></defs><title>Coca Cola Scholars Logo V2</title><g id="Layer_2" data-name="Layer 2"><g id="Layer_1-2" data-name="Layer 1"><path class="cls-1" d="M257.46,38v-.1a18.22,18.22,0,0,1,17.9-18.53h.83a18.47,18.47,0,0,1,14.13,5.53l-5.07,5.75a13.23,13.23,0,0,0-9.16-4.05c-6,0-10.38,5-10.38,11.15v.1C265.7,44,270,49.1,276.08,49.1c4.1,0,6.61-1.7,9.41-4.19l5,5.11a18.32,18.32,0,0,1-14.69,6.4,18.08,18.08,0,0,1-18.37-17.78Q257.45,38.31,257.46,38Z"/><path class="cls-1" d="M298.07,38v-.1a19,19,0,0,1,38.08-.1v.1a19,19,0,0,1-38.08.1Zm29.84,0v-.1a10.88,10.88,0,0,0-10.5-11.25h-.35a10.71,10.71,0,0,0-10.75,10.66q0,.24,0,.49v.1a10.88,10.88,0,0,0,10.5,11.25h.35a10.71,10.71,0,0,0,10.73-10.68q0-.23,0-.47Z"/><path class="cls-1" d="M345.43,38v-.1a18.22,18.22,0,0,1,17.9-18.53h.83a18.47,18.47,0,0,1,14.13,5.53l-5.07,5.75a13.23,13.23,0,0,0-9.16-4.05c-6,0-10.38,5-10.38,11.15v.1c0,6.15,4.26,11.25,10.38,11.25,4.1,0,6.61-1.7,9.41-4.19l5,5.11a18.32,18.32,0,0,1-14.69,6.4,18.08,18.08,0,0,1-18.37-17.78Q345.43,38.31,345.43,38Z"/><path class="cls-1" d="M400.93,19.71h7.27l15.32,36.07h-8.24l-3.27-8h-15.2l-3.27,8h-8Zm8.29,21.14-4.77-11.61-4.77,11.61Z"/><path class="cls-1" d="M429.16,36.19h15.76v7.47H429.16Z"/><path class="cls-1" d="M454,38v-.1a18.22,18.22,0,0,1,17.9-18.53h.83a18.47,18.47,0,0,1,14.13,5.53l-5.06,5.75a13.23,13.23,0,0,0-9.16-4.05c-6,0-10.38,5-10.38,11.15v.1c0,6.15,4.26,11.25,10.38,11.25,4.1,0,6.61-1.7,9.41-4.19l5,5.11a18.32,18.32,0,0,1-14.69,6.4A18.08,18.08,0,0,1,454,38.65Q454,38.32,454,38Z"/><path class="cls-1" d="M494.65,38v-.1a19,19,0,0,1,38.08-.1v.1a19,19,0,0,1-38.08.1Zm29.84,0v-.1A10.88,10.88,0,0,0,514,26.63h-.35a10.71,10.71,0,0,0-10.75,10.66q0,.24,0,.49v.1a10.88,10.88,0,0,0,10.5,11.25h.35A10.71,10.71,0,0,0,524.5,38.47Q524.5,38.22,524.49,38Z"/><path class="cls-1" d="M543.59,20h7.88V48.64h17.86V55.8H543.59Z"/><path class="cls-1" d="M591.41,19.71h7.27L614,55.79h-8.24l-3.27-8H587.34l-3.27,8h-8Zm8.29,21.14-4.77-11.61-4.75,11.61Z"/><path class="cls-1" d="M256.59,118.84l4.66-5.58a16.41,16.41,0,0,0,10.69,4.36c3.22,0,5.11-1.28,5.11-3.4v-.15c0-2-1.23-3-7.22-4.56-7.22-1.84-11.92-3.83-11.92-10.95v-.1c0-6.5,5.23-10.79,12.55-10.79a20.73,20.73,0,0,1,13.31,4.56l-4.09,5.94a16.82,16.82,0,0,0-9.31-3.52c-3,0-4.6,1.38-4.6,3.12v.1c0,2.35,1.53,3.12,7.73,4.7,7.27,1.89,11.37,4.51,11.37,10.74v.1c0,7.12-5.43,11.1-13.16,11.1A22.81,22.81,0,0,1,256.59,118.84Z"/><path class="cls-1" d="M294.07,106.26v-.1A18.22,18.22,0,0,1,312,87.63h.83a18.47,18.47,0,0,1,14.13,5.53l-5,5.77a13.23,13.23,0,0,0-9.16-4.05c-6,0-10.38,5-10.38,11.15v.1c0,6.15,4.26,11.25,10.38,11.25,4.1,0,6.61-1.7,9.41-4.19l5,5.11a18.32,18.32,0,0,1-14.69,6.4A18.08,18.08,0,0,1,294.07,107Q294.07,106.62,294.07,106.26Z"/><path class="cls-1" d="M337.23,88.25h7.88v14.18h14.54V88.25h7.88V124H359.7V109.68H345.16v14.38h-7.93Z"/><path class="cls-1" d="M378.44,106.26v-.1a19,19,0,0,1,38.08-.1v.1a19,19,0,0,1-38.08.1Zm29.84,0v-.1a10.88,10.88,0,0,0-10.5-11.25h-.35a10.71,10.71,0,0,0-10.75,10.66q0,.24,0,.49v.1a10.88,10.88,0,0,0,10.44,11.3h.4A10.71,10.71,0,0,0,408.3,106.8Q408.3,106.53,408.28,106.26Z"/><path class="cls-1" d="M427.45,88.25h7.88V116.9h17.86v7.17H427.45Z"/><path class="cls-1" d="M475.22,88h7.27l15.32,36.07h-8.24l-3.27-8H471.15l-3.27,8H459.8Zm8.29,21.09-4.77-11.61L474,109.09Z"/><path class="cls-1" d="M507.23,88.25H523.6A14.27,14.27,0,0,1,534,91.93a11.25,11.25,0,0,1,3.06,8.19v.1a11.12,11.12,0,0,1-7.68,11.1l8.75,12.8H529l-7.68-11.46h-6.2v11.46h-7.88Zm15.87,17.4c3.83,0,6-2,6-5.11v-.1c0-3.4-2.35-5.11-6.2-5.11h-7.83v10.21Z"/><path class="cls-1" d="M545.63,118.84l4.66-5.58A16.41,16.41,0,0,0,561,117.62c3.22,0,5.11-1.28,5.11-3.4v-.15c0-2-1.23-3-7.22-4.56-7.22-1.84-11.92-3.83-11.92-10.95v-.1c0-6.5,5.23-10.79,12.55-10.79a20.73,20.73,0,0,1,13.31,4.56l-4.07,6a16.82,16.82,0,0,0-9.31-3.52c-3,0-4.6,1.38-4.6,3.12v.1c0,2.35,1.53,3.12,7.73,4.7,7.27,1.89,11.35,4.51,11.35,10.74v.1c0,7.12-5.43,11.1-13.16,11.1A22.81,22.81,0,0,1,545.63,118.84Z"/><path class="cls-1" d="M259,156.52h27.24v7.17H266.92v7.63h17v7.17h-17v13.89H259Z"/><path class="cls-1" d="M294.89,174.53v-.1a19,19,0,0,1,38.08-.1v.1a19,19,0,0,1-38.08.1Zm29.84,0v-.1a10.88,10.88,0,0,0-10.5-11.25h-.35a10.71,10.71,0,0,0-10.72,10.7q0,.23,0,.45v.1a10.88,10.88,0,0,0,10.5,11.25H314A10.71,10.71,0,0,0,324.73,175q0-.22,0-.43Z"/><path class="cls-1" d="M343.27,177V156.62h7.88v20.28c0,5.84,2.91,8.85,7.73,8.85s7.73-2.91,7.73-8.51V156.52h7.88v20.21c0,10.84-6.09,16.17-15.71,16.17S343.27,187.53,343.27,177Z"/><path class="cls-1" d="M386.39,156.52h7.27l16.79,22.13V156.52h7.78v35.75h-6.71l-17.35-22.69v22.79h-7.78Z"/><path class="cls-1" d="M430.69,156.52h14c11.25,0,19,7.73,19,17.81v.1c0,10.08-7.78,17.91-19,17.91h-14Zm7.88,7.12v21.6h6.09a10.21,10.21,0,0,0,10.79-10.69v-.1a10.21,10.21,0,0,0-10.79-10.79Z"/><path class="cls-1" d="M484.28,156.26h7.27l15.32,36.07h-8.24l-3.27-8H480.23L477,192.37h-8Zm8.29,21.09-4.77-11.61L483,177.35Z"/><path class="cls-1" d="M520,163.78H509.17v-7.27h29.69v7.27h-11v28.58H520Z"/><path class="cls-1" d="M549.07,156.52H557v35.75h-7.88Z"/><path class="cls-1" d="M568.17,174.53v-.1a19,19,0,0,1,38-.1v.1a19,19,0,0,1-38.08.1Zm29.84,0v-.1a10.88,10.88,0,0,0-10.5-11.25h-.35a10.71,10.71,0,0,0-10.75,10.66q0,.24,0,.49v.1a10.88,10.88,0,0,0,10.5,11.25h.35A10.71,10.71,0,0,0,598,175q0-.23,0-.47Z"/><path class="cls-1" d="M617.11,156.52h7.27l16.79,22.13V156.52h7.78v35.75h-6.71l-17.31-22.69v22.79h-7.78Z"/><path class="cls-1" d="M109.93,219.6A109.8,109.8,0,1,1,109.67,0h0A109.75,109.75,0,0,1,219.77,109.41v.1A109.77,109.77,0,0,1,110.32,219.6h-.39ZM109.67,3.2V6.42a103.35,103.35,0,0,0,.24,206.7h.24a103.35,103.35,0,0,0-.22-206.7h-.24Z"/><path class="cls-1" d="M100,189.68a20.29,20.29,0,0,1-11.83-4.6c-1.31-1.16-1.5-3.81-1.52-6.55a44.43,44.43,0,0,1,2.67-17.18,24.12,24.12,0,0,0,1.53-10.9c-.73-8.29-3.73-18-3.73-30.9-.15-1,.34-1.55.37-2.18s-.19-6.81-.26-10.49A63.33,63.33,0,0,1,90,89.29c0-.43-.43-.36-.36-1.5.29-4.22,3.1-9,4.78-13.62A96.15,96.15,0,0,0,100,50.78a24.16,24.16,0,0,0,0-6.71,3.78,3.78,0,0,1-1.12-3.76c.1-1.07,1-2.16,1.29-4.63l-1.29-.24s.19-1.46.44-2.67.19-1.84.85-2.54a4,4,0,0,1,2.89-1.29h7c1.34,0,6.62.12,6.62.12a4.07,4.07,0,0,1,2.91,1.23,4,4,0,0,1,.85,2.54,21.82,21.82,0,0,0,.51,2.62l-1.23.26c.34,2.47,1.19,3.56,1.29,4.63A3.78,3.78,0,0,1,119.8,44a24.11,24.11,0,0,0,0,6.71,96.08,96.08,0,0,0,5.57,23.39c1.7,4.68,4.49,9.47,4.78,13.62,0,1.12-.37,1.07-.36,1.5a63.33,63.33,0,0,1,2.74,17.62c0,3.69-.1,9.65-.26,10.49s.53,1.21.37,2.18c0,12.84-3,22.61-3.73,30.9a24.12,24.12,0,0,0,1.53,10.9,44.36,44.36,0,0,1,2.67,17.18c0,2.74-.2,5.38-1.52,6.55a20.43,20.43,0,0,1-11.7,4.6c-.73,0-5.11.6-9.58.58s-8.89-.56-10.32-.58Z"/><path class="cls-1" d="M72.85,147.82s8.43,6,3.73,18.37C76.58,166.18,65.35,162.66,72.85,147.82Z"/><path class="cls-1" d="M75.42,168.28s-8.73,10.4-23.56-.61C51.86,167.67,61.68,161.08,75.42,168.28Z"/><path class="cls-1" d="M64.54,137.31s6.21,8.65-1,19.2C63.52,156.52,53.75,148.38,64.54,137.31Z"/><path class="cls-1" d="M61.45,157.86S50,165.23,39.83,152.24C39.84,152.24,52.82,147.83,61.45,157.86Z"/><path class="cls-1" d="M52.93,143.7s10.47-5.48,4.44-18.95A14.71,14.71,0,0,0,52.93,143.7Z"/><path class="cls-1" d="M50.81,144.7s-11.41,4.92-19.27-10.32A18.56,18.56,0,0,1,50.81,144.7Z"/><path class="cls-1" d="M45.51,128s9.87-2.42,8.07-17.35C53.56,110.65,41.12,115.51,45.51,128Z"/><path class="cls-1" d="M43.27,128.51s-13.62,1.24-15.7-16.56C27.57,111.95,39.79,114.06,43.27,128.51Z"/><path class="cls-1" d="M42.41,110.18S53.26,109.5,54.74,95C54.74,95,42.82,95.74,42.41,110.18Z"/><path class="cls-1" d="M40,110.18S26.38,107.42,30.57,89C30.57,89,40,94.43,40,110.18Z"/><path class="cls-1" d="M44.25,91.3s10.21,1.8,15.81-11.64A14.23,14.23,0,0,0,44.25,91.3Z"/><path class="cls-1" d="M41.94,90.63S31.09,86.55,38.75,70C38.75,70,46.79,76.18,41.94,90.63Z"/><path class="cls-1" d="M50.81,74.63s8.73,5.11,18.08-6.95C68.89,67.67,57.16,62.58,50.81,74.63Z"/><path class="cls-1" d="M48.66,73.53S39.49,63.77,50.74,54C50.74,54,56.34,61.29,48.66,73.53Z"/><path class="cls-1" d="M61.26,60.52s8.22,6,20-6.81A18,18,0,0,0,61.26,60.52Z"/><path class="cls-1" d="M59.3,59.09S53.5,48.42,68.17,40.24C68.15,40.24,70.37,49.06,59.3,59.09Z"/><path class="cls-1" d="M73.21,49.13s-1-13,14.69-17.26C87.9,31.87,88.68,47,73.21,49.13Z"/><path class="cls-1" d="M147.43,147.82s-8.43,6-3.73,18.37C143.7,166.18,154.94,162.66,147.43,147.82Z"/><path class="cls-1" d="M144.86,168.28s8.73,10.4,23.56-.61C168.42,167.67,158.6,161.08,144.86,168.28Z"/><path class="cls-1" d="M155.74,137.31s-6.21,8.65,1,19.2C156.78,156.52,166.53,148.38,155.74,137.31Z"/><path class="cls-1" d="M158.82,157.86s11.46,7.37,21.62-5.62C180.44,152.24,167.47,147.83,158.82,157.86Z"/><path class="cls-1" d="M167.37,143.7s-10.47-5.48-4.44-18.95A14.71,14.71,0,0,1,167.37,143.7Z"/><path class="cls-1" d="M169.48,144.7s11.41,4.92,19.27-10.32A18.56,18.56,0,0,0,169.48,144.7Z"/><path class="cls-1" d="M174.77,128s-9.87-2.42-8.05-17.38C166.72,110.65,179.16,115.51,174.77,128Z"/><path class="cls-1" d="M177,128.51s13.62,1.24,15.7-16.56C192.72,111.95,180.49,114.06,177,128.51Z"/><path class="cls-1" d="M177.87,110.18S167,109.5,165.55,95C165.55,95,177.46,95.74,177.87,110.18Z"/><path class="cls-1" d="M180.29,110.18s13.62-2.76,9.43-21.16C189.72,89,180.29,94.43,180.29,110.18Z"/><path class="cls-1" d="M176,91.3s-10.21,1.8-15.81-11.64A14.23,14.23,0,0,1,176,91.3Z"/><path class="cls-1" d="M178.35,90.63s10.84-4.09,3.18-20.62C181.51,70,173.5,76.18,178.35,90.63Z"/><path class="cls-1" d="M169.48,74.63s-8.73,5.11-18.08-6.95C151.4,67.67,163.13,62.58,169.48,74.63Z"/><path class="cls-1" d="M171.62,73.53s9.18-9.75-2.08-19.53C169.55,54,164,61.29,171.62,73.53Z"/><path class="cls-1" d="M159,60.52s-8.22,6-20-6.81A18,18,0,0,1,159,60.52Z"/><path class="cls-1" d="M161,59.09s5.81-10.67-8.87-18.85C152.13,40.24,150,49.06,161,59.09Z"/><path class="cls-1" d="M147.08,49.13s1-13-14.69-17.26C132.37,31.87,131.58,47,147.08,49.13Z"/></g></g></svg>