<svg width="208" height="70" fill="none" xmlns="http://www.w3.org/2000/svg">
  <path d="M82.09 36.874V17.827h8.31c6.093 0 9.759 3.426 9.759 9.482 0 6.057-3.758 9.565-9.722 9.565H82.09zm4.617-15.16v11.292h3.333c3.693 0 5.429-2.096 5.429-5.697 0-3.6-1.847-5.595-5.429-5.595h-3.333zm25.288 15.16l-.139-1.422a4.896 4.896 0 01-3.97 1.699c-3.591 0-6.232-2.973-6.232-6.998 0-4.026 2.641-7.017 6.232-7.017a4.978 4.978 0 013.97 1.69l.139-1.413h4.274v13.461h-4.274zm-5.965-6.721a2.906 2.906 0 001.918 2.551 2.907 2.907 0 10.991-5.644 2.868 2.868 0 00-2.754 1.917 2.882 2.882 0 00-.155 1.176zm26.858-6.74l-4.948 13.461h-5.447l-4.949-13.46h4.616l3.028 9.14 3.029-9.14h4.671zm1.034-4.136a2.429 2.429 0 112.41 2.41 2.31 2.31 0 01-2.41-2.41zm4.616 17.597h-4.422v-13.46h4.422v13.46zm12.381 0l-.147-1.034a5.66 5.66 0 01-3.952 1.31c-3.804 0-6.278-2.972-6.278-6.979s2.474-7.035 6.278-7.035a4.893 4.893 0 014.053 1.69v-7.728h4.293v19.776h-4.247zm-5.936-6.73a2.922 2.922 0 001.808 2.835c.369.152.765.227 1.165.22a3.053 3.053 0 002.882-1.827 3.06 3.06 0 00-.609-3.358 3.056 3.056 0 00-5.246 2.13zm17.771 7.006a13.92 13.92 0 01-5.262-.922l.434-3.49a14.19 14.19 0 004.45.923c1.468 0 2.031-.212 2.031-.785 0-.572-.406-.71-1.846-.923l-1.247-.194c-2.77-.434-4.062-1.708-4.062-4.09 0-2.77 2.41-4.487 6.176-4.487a11.26 11.26 0 014.617.868l-.333 3.435a14.01 14.01 0 00-4.025-.72c-1.496 0-2.216.286-2.216.867 0 .582.545.73 2.077.923l1.302.213c2.595.425 3.804 1.68 3.804 3.98.018 2.695-2.271 4.403-5.9 4.403zm21.541-7.007a7.235 7.235 0 01-4.318 6.837 7.239 7.239 0 11-2.921-13.862 6.947 6.947 0 016.708 4.273 6.95 6.95 0 01.531 2.753zm-10.101 0a2.872 2.872 0 101.709-2.863 2.86 2.86 0 00-1.709 2.863zm20.92 6.731v-7.488a2.162 2.162 0 00-2.252-2.216 2.136 2.136 0 00-2.097 1.348 2.13 2.13 0 00-.147.869v7.487h-4.413v-13.46h4.044l.148 1.412a5.226 5.226 0 014.163-1.708 4.824 4.824 0 013.571 1.412 4.818 4.818 0 011.406 3.573v8.771h-4.423zM86.707 60.334h-4.616V41.287h4.616v19.047zm11.855 0v-7.488A2.17 2.17 0 0096.3 50.63a2.133 2.133 0 00-2.243 2.216v7.488h-4.413V46.873h4.053l.138 1.412A5.208 5.208 0 0198 46.587a4.828 4.828 0 014.976 4.994v8.753h-4.413zm11.845.276a13.843 13.843 0 01-5.253-.923l.433-3.49c1.422.542 2.921.853 4.441.924 1.477 0 2.031-.213 2.031-.785 0-.572-.406-.72-1.846-.923l-1.246-.194c-2.77-.434-4.063-1.708-4.063-4.1 0-2.77 2.41-4.486 6.186-4.486a11.474 11.474 0 014.616.867l-.341 3.444a13.968 13.968 0 00-4.026-.72c-1.495 0-2.215.277-2.215.868 0 .59.553.73 2.077.923l1.302.212c2.594.416 3.803 1.68 3.803 3.98.019 2.696-2.262 4.404-5.899 4.404zm13.231-10.137v4.349c0 2.28 2.031 2.086 4.163 1.579l.314 3.591a11.434 11.434 0 01-3.582.619c-3.084 0-5.309-1.487-5.309-5.078v-5.06h-2.151v-3.6h2.151v-4.321h4.275v4.32h3.795v3.601h-3.656zm5.871-7.736a2.426 2.426 0 011.488-2.258 2.428 2.428 0 11.931 4.667 2.321 2.321 0 01-2.262-1.47 2.32 2.32 0 01-.157-.94zm4.616 17.597h-4.413V46.873h4.413v13.46zm8.079-9.861v4.349c0 2.28 2.031 2.086 4.164 1.579l.304 3.591a11.38 11.38 0 01-3.573.619c-3.083 0-5.317-1.487-5.317-5.078v-5.06h-2.142v-3.6h2.142v-4.321h4.274v4.32h3.804v3.601h-3.656zm18.825-3.6v7.838c0 3.416-2.622 5.9-6.601 5.9-3.98 0-6.463-2.484-6.463-5.817v-7.921h4.413v7.497a2.123 2.123 0 104.238 0v-7.497h4.413zm7.976 3.6v4.349c0 2.28 2.041 2.086 4.173 1.579l.305 3.591a11.38 11.38 0 01-3.573.619c-3.093 0-5.318-1.487-5.318-5.078v-5.06h-2.142v-3.6h2.142v-4.321h4.275v4.32h3.804v3.601h-3.666zm18.216 8.928a10.754 10.754 0 01-5.031 1.21c-4.986 0-7.977-2.77-7.977-7.008a6.642 6.642 0 014.187-6.554 6.646 6.646 0 012.709-.462c3.906 0 7.386 2.566 6.38 8.152h-8.974c.231 1.55 1.893 2.142 3.693 2.142 1.505.024 3-.243 4.404-.785l.609 3.305zm-3.693-7.257a2.182 2.182 0 00-.217-.842 2.185 2.185 0 00-1.29-1.114 2.176 2.176 0 00-.866-.093 2.39 2.39 0 00-2.585 2.05h4.958z" fill="#372A3E"/>
  <path d="M19.237 23.265L17.843 4.247A3.933 3.933 0 0124.305.932l7.47 6.186-4.617 5.622-1.412-1.172.812 11.162-7.321.535z" fill="#4CC0AD"/>
  <path d="M38.394 19.425l-4.949-5.355L47.47 1.089a3.924 3.924 0 016.592 2.77l.139 9.103-7.294.12v-1.533l-8.512 7.876z" fill="#EC9123"/>
  <path d="M62.74 35.166l-4.543-5.715 1.45-1.154-11.209-1.699 1.09-7.173 18.862 2.77a3.933 3.933 0 011.846 6.96l-7.497 6.011z" fill="#CBDB2A"/>
  <path d="M61.438 57.74a3.478 3.478 0 01-.813-.093l-8.687-1.846 1.514-7.137 1.292.267-5.76-9.97 6.314-3.694 9.547 16.536a3.924 3.924 0 01-3.407 5.9v.036z" fill="#EC9123"/>
  <path d="M35.846 70a3.951 3.951 0 01-3.536-2.207L28.2 59.29l6.564-3.176.785 1.625 4.256-10.617 6.74 2.687-7.053 17.717A3.915 3.915 0 0135.983 70h-.138z" fill="#4CC0AD"/>
  <path d="M10.28 57.684a3.933 3.933 0 01-3.434-5.752l4.552-8.688 6.463 3.389-.859 1.56 10.525-3.204 2.133 6.98-18.197 5.549a4.088 4.088 0 01-1.182.166z" fill="#EC9123"/>
  <path d="M17.482 40.124L1.787 29.239a3.933 3.933 0 011.367-7.045l9.001-2.114 1.671 7.1-1.643.388 9.436 6.564-4.137 5.992z" fill="#CBDB2A"/>
  <path d="M32.494 40.253l-7.607 2.327a.24.24 0 01-.277-.342l3.96-6.897a.23.23 0 00-.064-.313l-6.574-4.524a.231.231 0 01.102-.425l7.894-1.173a.24.24 0 00.203-.249l-.582-7.94a.232.232 0 01.263-.254.23.23 0 01.125.06l5.816 5.364a.24.24 0 00.324 0l5.853-5.364a.23.23 0 01.397.185l-.591 7.95a.24.24 0 00.203.248l7.866 1.2a.23.23 0 01.102.425l-6.574 4.497a.25.25 0 00-.074.313l3.97 6.897a.23.23 0 01-.267.342l-7.608-2.327a.24.24 0 00-.295.139l-2.927 7.386a.23.23 0 01-.35.11.231.231 0 01-.084-.11l-2.917-7.386a.23.23 0 00-.287-.139zm169.249-22.924h-1.098v-.48h2.705v.48h-1.099v2.843h-.508V17.33zm3.859 1.745l-1.237-1.367v2.465h-.508V16.85h.462l1.348 1.578 1.329-1.578h.462v3.323h-.517v-2.474l-1.219 1.376h-.12z" fill="#372A3E"/>
</svg>
