<svg xmlns="http://www.w3.org/2000/svg" xmlns:xlink="http://www.w3.org/1999/xlink" version="1.1" viewBox="45.4 209.22 46.61 37.55">
<path transform="matrix(1,0,0,-1,91.896,245.229)" d="M0 0C-5.312 .443-5.465 .61-5.465 5.962V26.355C-5.465 28.459-5.465 31.342-4.913 32.557-4.139 34.26-2.232 34.401-.179 34.401H-.057V36.005L-.186 35.997C-2.156 35.885-3.988 35.828-5.752 35.772L-5.912 35.777C-7.603 35.832-9.353 35.888-11.044 35.997L-11.131 36.003-23.109 7.346-35.388 35.924-35.422 36.003-35.508 35.997C-37.309 35.881-39.104 35.823-40.68 35.772-42.422 35.823-44.396 35.882-46.366 35.997L-46.496 36.005V34.457H-46.373C-44.578 34.457-42.345 34.457-41.643 32.62-41.349 31.857-41.144 30.369-41.144 29.003V5.004C-41.144 2.856-41.657 0-46.091 0H-46.214V-1.544L-46.088-1.54C-45.101-1.512-44.098-1.469-43.129-1.427-42.16-1.386-41.158-1.343-40.18-1.315-39.138-1.343-38.079-1.386-37.055-1.427-36.03-1.469-34.97-1.512-33.927-1.54L-33.801-1.544V-.005L-33.917 0C-38.39 .221-39.209 2.466-39.209 6.807V30.19L-25.642-1.466-25.61-1.54H-24.886L-24.854-1.467C-23.673 1.234-22.486 3.979-21.338 6.634-20.187 9.296-18.997 12.05-17.811 14.76L-11.512 30.176V5.962C-11.512 .61-11.665 .443-16.977 0L-17.089-.009V-1.543L-16.964-1.54C-15.555-1.512-14.109-1.469-12.71-1.427-11.312-1.386-9.866-1.343-8.463-1.315-7.144-1.342-5.852-1.381-4.485-1.422-3.038-1.466-1.542-1.511-.013-1.54L.112-1.543V-.009Z" fill="#231f20"/>
</svg>